<svg xmlns="http://www.w3.org/2000/svg" xmlns:xlink="http://www.w3.org/1999/xlink" width="500" zoomAndPan="magnify" viewBox="0 0 375 374.999991" height="500" preserveAspectRatio="xMidYMid meet" version="1.0"><defs><g/><clipPath id="ccc6364adf"><path d="M 15.246094 15.246094 L 359.496094 15.246094 L 359.496094 359.496094 L 15.246094 359.496094 Z M 15.246094 15.246094 " clip-rule="nonzero"/></clipPath><clipPath id="a04b369415"><path d="M 187.5 208.203125 L 350 208.203125 L 350 359.753906 L 187.5 359.753906 Z M 187.5 208.203125 " clip-rule="nonzero"/></clipPath><clipPath id="36b19f6b68"><path d="M 204.75 208.203125 L 332.5 208.203125 C 337.074219 208.203125 341.464844 210.019531 344.699219 213.253906 C 347.933594 216.488281 349.75 220.878906 349.75 225.453125 L 349.75 342.503906 C 349.75 347.078125 347.933594 351.464844 344.699219 354.703125 C 341.464844 357.9375 337.074219 359.753906 332.5 359.753906 L 204.75 359.753906 C 200.175781 359.753906 195.789062 357.9375 192.550781 354.703125 C 189.316406 351.464844 187.5 347.078125 187.5 342.503906 L 187.5 225.453125 C 187.5 220.878906 189.316406 216.488281 192.550781 213.253906 C 195.789062 210.019531 200.175781 208.203125 204.75 208.203125 Z M 204.75 208.203125 " clip-rule="nonzero"/></clipPath></defs><g clip-path="url(#ccc6364adf)"><path fill="#ffffff" d="M 309.296875 65.699219 C 276.761719 33.164062 233.507812 15.246094 187.496094 15.246094 C 141.488281 15.246094 98.230469 33.164062 65.699219 65.699219 C 33.164062 98.230469 15.246094 141.488281 15.246094 187.496094 C 15.246094 233.507812 33.164062 276.761719 65.699219 309.296875 C 98.230469 341.832031 141.488281 359.75 187.496094 359.75 C 233.507812 359.75 276.761719 341.832031 309.296875 309.296875 C 341.832031 276.761719 359.75 233.507812 359.75 187.496094 C 359.75 141.488281 341.832031 98.230469 309.296875 65.699219 Z M 73.511719 73.511719 C 103.960938 43.066406 144.441406 26.300781 187.496094 26.300781 C 230.554688 26.300781 271.035156 43.066406 301.480469 73.511719 C 331.925781 103.960938 348.695312 144.441406 348.695312 187.496094 C 348.695312 223.289062 337.097656 257.296875 315.695312 285.246094 C 298.667969 261.429688 271.472656 247.363281 241.9375 247.363281 L 133.058594 247.363281 C 103.523438 247.363281 76.328125 261.429688 59.296875 285.246094 C 37.898438 257.296875 26.300781 223.289062 26.300781 187.496094 C 26.300781 144.441406 43.066406 103.960938 73.511719 73.511719 Z M 187.496094 238.28125 C 231.753906 238.28125 267.757812 202.277344 267.757812 158.019531 C 267.757812 113.765625 231.753906 77.757812 187.496094 77.757812 C 143.242188 77.757812 107.234375 113.765625 107.234375 158.019531 C 107.234375 202.277344 143.242188 238.28125 187.496094 238.28125 Z M 187.496094 238.28125 " fill-opacity="1" fill-rule="nonzero"/></g><g clip-path="url(#a04b369415)"><g clip-path="url(#36b19f6b68)"><path fill="#ff914d" d="M 187.5 208.203125 L 349.707031 208.203125 L 349.707031 359.753906 L 187.5 359.753906 Z M 187.5 208.203125 " fill-opacity="1" fill-rule="nonzero"/></g></g><g fill="#ffffff" fill-opacity="1"><g transform="translate(230.660219, 310.952543)"><g><path d="M 45.96875 -36.65625 C 45.96875 -33.519531 45.25 -30.65625 43.8125 -28.0625 C 42.375 -25.46875 40.164062 -23.375 37.1875 -21.78125 C 34.207031 -20.195312 30.515625 -19.40625 26.109375 -19.40625 L 17.9375 -19.40625 L 17.9375 0 L 4.78125 0 L 4.78125 -54.046875 L 26.109375 -54.046875 C 30.421875 -54.046875 34.0625 -53.300781 37.03125 -51.8125 C 40.007812 -50.332031 42.242188 -48.28125 43.734375 -45.65625 C 45.222656 -43.039062 45.96875 -40.039062 45.96875 -36.65625 Z M 25.109375 -29.875 C 27.617188 -29.875 29.488281 -30.460938 30.71875 -31.640625 C 31.957031 -32.828125 32.578125 -34.5 32.578125 -36.65625 C 32.578125 -38.8125 31.957031 -40.476562 30.71875 -41.65625 C 29.488281 -42.832031 27.617188 -43.421875 25.109375 -43.421875 L 17.9375 -43.421875 L 17.9375 -29.875 Z M 25.109375 -29.875 "/></g></g></g><g fill="#ffffff" fill-opacity="1"><g transform="translate(277.625401, 310.952543)"><g><path d="M 2.078125 -43.96875 L 2.078125 -56.203125 L 23.40625 -56.203125 L 23.40625 0 L 9.703125 0 L 9.703125 -43.96875 Z M 2.078125 -43.96875 "/></g></g></g></svg>