<svg xmlns="http://www.w3.org/2000/svg" xmlns:xlink="http://www.w3.org/1999/xlink" width="500" zoomAndPan="magnify" viewBox="0 0 375 374.999991" height="500" preserveAspectRatio="xMidYMid meet" version="1.0"><defs><filter x="0%" y="0%" width="100%" height="100%" id="21f15b623c"><feColorMatrix values="0 0 0 0 1 0 0 0 0 1 0 0 0 0 1 0 0 0 1 0" color-interpolation-filters="sRGB"/></filter><mask id="2476fc3fea"><g filter="url(#21f15b623c)"><rect x="-37.5" width="450" fill="#000000" y="-37.499999" height="449.999989" fill-opacity="0.1"/></g></mask><clipPath id="67928c4cc8"><path d="M 0.246094 0.246094 L 344.496094 0.246094 L 344.496094 344.496094 L 0.246094 344.496094 Z M 0.246094 0.246094 " clip-rule="nonzero"/></clipPath><clipPath id="6b6a9e3cad"><rect x="0" width="346" y="0" height="346"/></clipPath><clipPath id="5d2d2da8f9"><path d="M 181.402344 181.402344 L 359.902344 181.402344 L 359.902344 359.902344 L 181.402344 359.902344 Z M 181.402344 181.402344 " clip-rule="nonzero"/></clipPath></defs><g mask="url(#2476fc3fea)"><g transform="matrix(1, 0, 0, 1, 15, 15)"><g clip-path="url(#6b6a9e3cad)"><g clip-path="url(#67928c4cc8)"><path fill="#ffffff" d="M 294.296875 50.699219 C 261.761719 18.164062 218.507812 0.246094 172.496094 0.246094 C 126.488281 0.246094 83.230469 18.164062 50.699219 50.699219 C 18.164062 83.230469 0.246094 126.488281 0.246094 172.496094 C 0.246094 218.507812 18.164062 261.761719 50.699219 294.296875 C 83.230469 326.832031 126.488281 344.75 172.496094 344.75 C 218.507812 344.75 261.761719 326.832031 294.296875 294.296875 C 326.832031 261.761719 344.75 218.507812 344.75 172.496094 C 344.75 126.488281 326.832031 83.230469 294.296875 50.699219 Z M 58.511719 58.511719 C 88.960938 28.066406 129.441406 11.300781 172.496094 11.300781 C 215.554688 11.300781 256.035156 28.066406 286.480469 58.511719 C 316.925781 88.960938 333.695312 129.441406 333.695312 172.496094 C 333.695312 208.289062 322.097656 242.296875 300.695312 270.246094 C 283.667969 246.429688 256.472656 232.363281 226.9375 232.363281 L 118.058594 232.363281 C 88.523438 232.363281 61.328125 246.429688 44.296875 270.246094 C 22.898438 242.296875 11.300781 208.289062 11.300781 172.496094 C 11.300781 129.441406 28.066406 88.960938 58.511719 58.511719 Z M 172.496094 223.28125 C 216.753906 223.28125 252.757812 187.277344 252.757812 143.019531 C 252.757812 98.765625 216.753906 62.757812 172.496094 62.757812 C 128.242188 62.757812 92.234375 98.765625 92.234375 143.019531 C 92.234375 187.277344 128.242188 223.28125 172.496094 223.28125 Z M 172.496094 223.28125 " fill-opacity="1" fill-rule="nonzero"/></g></g></g></g><g clip-path="url(#5d2d2da8f9)"><path fill="#ff914d" d="M 270.574219 181.402344 C 269.117188 181.402344 267.65625 181.4375 266.199219 181.507812 C 264.742188 181.582031 263.289062 181.6875 261.835938 181.832031 C 260.382812 181.972656 258.933594 182.152344 257.492188 182.367188 C 256.046875 182.582031 254.609375 182.832031 253.179688 183.113281 C 251.746094 183.398438 250.324219 183.71875 248.90625 184.074219 C 247.492188 184.429688 246.085938 184.816406 244.691406 185.242188 C 243.292969 185.664062 241.90625 186.121094 240.535156 186.613281 C 239.160156 187.105469 237.796875 187.632812 236.449219 188.191406 C 235.101562 188.746094 233.769531 189.339844 232.449219 189.964844 C 231.128906 190.585938 229.828125 191.242188 228.539062 191.929688 C 227.253906 192.617188 225.984375 193.339844 224.730469 194.089844 C 223.480469 194.839844 222.246094 195.621094 221.03125 196.429688 C 219.820312 197.242188 218.625 198.082031 217.453125 198.949219 C 216.28125 199.820312 215.132812 200.71875 214.003906 201.644531 C 212.875 202.570312 211.769531 203.523438 210.691406 204.5 C 209.609375 205.480469 208.550781 206.488281 207.519531 207.519531 C 206.488281 208.550781 205.480469 209.609375 204.5 210.691406 C 203.523438 211.769531 202.570312 212.875 201.644531 214.003906 C 200.71875 215.132812 199.820312 216.28125 198.949219 217.453125 C 198.082031 218.625 197.242188 219.820312 196.429688 221.03125 C 195.621094 222.246094 194.839844 223.480469 194.089844 224.730469 C 193.339844 225.984375 192.617188 227.253906 191.929688 228.539062 C 191.242188 229.828125 190.585938 231.128906 189.964844 232.449219 C 189.339844 233.769531 188.746094 235.101562 188.191406 236.449219 C 187.632812 237.796875 187.105469 239.160156 186.613281 240.535156 C 186.121094 241.90625 185.664062 243.292969 185.242188 244.691406 C 184.816406 246.085938 184.429688 247.492188 184.074219 248.90625 C 183.71875 250.324219 183.398438 251.746094 183.113281 253.179688 C 182.832031 254.609375 182.582031 256.046875 182.367188 257.492188 C 182.152344 258.933594 181.972656 260.382812 181.832031 261.835938 C 181.6875 263.289062 181.582031 264.742188 181.507812 266.199219 C 181.4375 267.65625 181.402344 269.117188 181.402344 270.574219 C 181.402344 272.035156 181.4375 273.492188 181.507812 274.949219 C 181.582031 276.410156 181.6875 277.863281 181.832031 279.316406 C 181.972656 280.769531 182.152344 282.214844 182.367188 283.660156 C 182.582031 285.101562 182.832031 286.539062 183.113281 287.972656 C 183.398438 289.402344 183.71875 290.828125 184.074219 292.242188 C 184.429688 293.660156 184.816406 295.066406 185.242188 296.460938 C 185.664062 297.859375 186.121094 299.242188 186.613281 300.617188 C 187.105469 301.992188 187.632812 303.351562 188.191406 304.699219 C 188.746094 306.050781 189.339844 307.382812 189.964844 308.703125 C 190.585938 310.019531 191.242188 311.324219 191.929688 312.613281 C 192.617188 313.898438 193.339844 315.167969 194.089844 316.417969 C 194.839844 317.671875 195.621094 318.902344 196.429688 320.117188 C 197.242188 321.332031 198.082031 322.523438 198.949219 323.695312 C 199.820312 324.867188 200.71875 326.019531 201.644531 327.148438 C 202.570312 328.273438 203.523438 329.378906 204.5 330.460938 C 205.480469 331.542969 206.488281 332.597656 207.519531 333.628906 C 208.550781 334.664062 209.609375 335.667969 210.691406 336.648438 C 211.769531 337.628906 212.875 338.582031 214.003906 339.507812 C 215.132812 340.433594 216.28125 341.332031 217.453125 342.199219 C 218.625 343.070312 219.820312 343.910156 221.03125 344.71875 C 222.246094 345.53125 223.480469 346.3125 224.730469 347.0625 C 225.984375 347.8125 227.253906 348.53125 228.539062 349.21875 C 229.828125 349.90625 231.128906 350.5625 232.449219 351.1875 C 233.769531 351.8125 235.101562 352.402344 236.449219 352.960938 C 237.796875 353.519531 239.160156 354.042969 240.535156 354.535156 C 241.90625 355.027344 243.292969 355.484375 244.691406 355.910156 C 246.085938 356.332031 247.492188 356.722656 248.90625 357.078125 C 250.324219 357.429688 251.746094 357.75 253.179688 358.035156 C 254.609375 358.320312 256.046875 358.570312 257.492188 358.785156 C 258.933594 359 260.382812 359.175781 261.835938 359.320312 C 263.289062 359.460938 264.742188 359.570312 266.199219 359.640625 C 267.65625 359.714844 269.117188 359.75 270.574219 359.75 C 272.035156 359.75 273.492188 359.714844 274.949219 359.640625 C 276.410156 359.570312 277.863281 359.460938 279.316406 359.320312 C 280.769531 359.175781 282.214844 359 283.660156 358.785156 C 285.101562 358.570312 286.539062 358.320312 287.972656 358.035156 C 289.402344 357.75 290.828125 357.429688 292.242188 357.078125 C 293.660156 356.722656 295.066406 356.332031 296.460938 355.910156 C 297.859375 355.484375 299.242188 355.027344 300.617188 354.535156 C 301.992188 354.042969 303.351562 353.519531 304.699219 352.960938 C 306.050781 352.402344 307.382812 351.8125 308.703125 351.1875 C 310.019531 350.5625 311.324219 349.90625 312.613281 349.21875 C 313.898438 348.53125 315.167969 347.8125 316.417969 347.0625 C 317.671875 346.3125 318.902344 345.53125 320.117188 344.71875 C 321.332031 343.910156 322.523438 343.070312 323.695312 342.199219 C 324.867188 341.332031 326.019531 340.433594 327.148438 339.507812 C 328.273438 338.582031 329.378906 337.628906 330.460938 336.648438 C 331.542969 335.667969 332.597656 334.664062 333.628906 333.628906 C 334.664062 332.597656 335.667969 331.542969 336.648438 330.460938 C 337.628906 329.378906 338.582031 328.273438 339.507812 327.148438 C 340.433594 326.019531 341.332031 324.867188 342.199219 323.695312 C 343.070312 322.523438 343.910156 321.332031 344.71875 320.117188 C 345.53125 318.902344 346.3125 317.671875 347.0625 316.417969 C 347.8125 315.167969 348.53125 313.898438 349.21875 312.613281 C 349.90625 311.324219 350.5625 310.019531 351.1875 308.703125 C 351.8125 307.382812 352.402344 306.050781 352.960938 304.699219 C 353.519531 303.351562 354.042969 301.992188 354.535156 300.617188 C 355.027344 299.242188 355.484375 297.859375 355.910156 296.460938 C 356.332031 295.066406 356.722656 293.660156 357.078125 292.242188 C 357.429688 290.828125 357.75 289.402344 358.035156 287.972656 C 358.320312 286.539062 358.570312 285.101562 358.785156 283.660156 C 359 282.214844 359.175781 280.769531 359.320312 279.316406 C 359.460938 277.863281 359.570312 276.410156 359.640625 274.949219 C 359.714844 273.492188 359.75 272.035156 359.75 270.574219 C 359.75 269.117188 359.714844 267.65625 359.640625 266.199219 C 359.570312 264.742188 359.460938 263.289062 359.320312 261.835938 C 359.175781 260.382812 359 258.933594 358.785156 257.492188 C 358.570312 256.046875 358.320312 254.609375 358.035156 253.179688 C 357.75 251.746094 357.429688 250.324219 357.078125 248.90625 C 356.722656 247.492188 356.332031 246.085938 355.910156 244.691406 C 355.484375 243.292969 355.027344 241.90625 354.535156 240.535156 C 354.042969 239.160156 353.519531 237.796875 352.960938 236.449219 C 352.402344 235.101562 351.8125 233.769531 351.1875 232.449219 C 350.5625 231.128906 349.90625 229.828125 349.21875 228.539062 C 348.53125 227.253906 347.8125 225.984375 347.0625 224.730469 C 346.3125 223.480469 345.53125 222.246094 344.71875 221.03125 C 343.910156 219.820312 343.070312 218.625 342.199219 217.453125 C 341.332031 216.28125 340.433594 215.132812 339.507812 214.003906 C 338.582031 212.875 337.628906 211.769531 336.648438 210.691406 C 335.667969 209.609375 334.664062 208.550781 333.628906 207.519531 C 332.597656 206.488281 331.542969 205.480469 330.460938 204.5 C 329.378906 203.523438 328.273438 202.570312 327.148438 201.644531 C 326.019531 200.71875 324.867188 199.820312 323.695312 198.949219 C 322.523438 198.082031 321.332031 197.242188 320.117188 196.429688 C 318.902344 195.621094 317.671875 194.839844 316.417969 194.089844 C 315.167969 193.339844 313.898438 192.617188 312.613281 191.929688 C 311.324219 191.242188 310.019531 190.585938 308.703125 189.964844 C 307.382812 189.339844 306.050781 188.746094 304.699219 188.191406 C 303.351562 187.632812 301.992188 187.105469 300.617188 186.613281 C 299.242188 186.121094 297.859375 185.664062 296.460938 185.242188 C 295.066406 184.816406 293.660156 184.429688 292.242188 184.074219 C 290.828125 183.71875 289.402344 183.398438 287.972656 183.113281 C 286.539062 182.832031 285.101562 182.582031 283.660156 182.367188 C 282.214844 182.152344 280.769531 181.972656 279.316406 181.832031 C 277.863281 181.6875 276.410156 181.582031 274.949219 181.507812 C 273.492188 181.4375 272.035156 181.402344 270.574219 181.402344 Z M 270.574219 347.011719 C 269.324219 347.011719 268.074219 346.980469 266.824219 346.917969 C 265.574219 346.855469 264.328125 346.765625 263.082031 346.640625 C 261.839844 346.519531 260.597656 346.367188 259.359375 346.183594 C 258.121094 346 256.890625 345.785156 255.664062 345.542969 C 254.4375 345.296875 253.214844 345.023438 252.003906 344.71875 C 250.789062 344.414062 249.585938 344.082031 248.386719 343.71875 C 247.191406 343.355469 246.003906 342.964844 244.824219 342.542969 C 243.648438 342.121094 242.480469 341.671875 241.324219 341.191406 C 240.167969 340.714844 239.027344 340.207031 237.894531 339.671875 C 236.765625 339.136719 235.648438 338.574219 234.542969 337.984375 C 233.441406 337.394531 232.351562 336.777344 231.28125 336.136719 C 230.207031 335.492188 229.152344 334.824219 228.109375 334.128906 C 227.070312 333.433594 226.046875 332.714844 225.042969 331.96875 C 224.039062 331.222656 223.050781 330.453125 222.085938 329.660156 C 221.117188 328.867188 220.171875 328.050781 219.246094 327.210938 C 218.316406 326.371094 217.414062 325.507812 216.527344 324.621094 C 215.644531 323.738281 214.78125 322.832031 213.941406 321.90625 C 213.101562 320.980469 212.285156 320.03125 211.492188 319.066406 C 210.695312 318.097656 209.925781 317.113281 209.183594 316.109375 C 208.4375 315.101562 207.71875 314.082031 207.023438 313.039062 C 206.328125 312 205.660156 310.945312 205.015625 309.871094 C 204.371094 308.796875 203.753906 307.710938 203.164062 306.605469 C 202.578125 305.503906 202.015625 304.386719 201.480469 303.253906 C 200.945312 302.125 200.4375 300.980469 199.957031 299.824219 C 199.480469 298.671875 199.03125 297.503906 198.609375 296.324219 C 198.1875 295.148438 197.796875 293.960938 197.433594 292.761719 C 197.070312 291.566406 196.734375 290.359375 196.429688 289.148438 C 196.128906 287.933594 195.851562 286.714844 195.609375 285.488281 C 195.367188 284.261719 195.152344 283.027344 194.96875 281.789062 C 194.785156 280.554688 194.632812 279.3125 194.507812 278.066406 C 194.386719 276.824219 194.292969 275.574219 194.234375 274.324219 C 194.171875 273.078125 194.140625 271.828125 194.140625 270.574219 C 194.140625 269.324219 194.171875 268.074219 194.234375 266.824219 C 194.292969 265.574219 194.386719 264.328125 194.507812 263.082031 C 194.632812 261.839844 194.785156 260.597656 194.96875 259.359375 C 195.152344 258.121094 195.367188 256.890625 195.609375 255.664062 C 195.851562 254.4375 196.128906 253.214844 196.429688 252.003906 C 196.734375 250.789062 197.070312 249.585938 197.433594 248.386719 C 197.796875 247.191406 198.1875 246.003906 198.609375 244.824219 C 199.03125 243.648438 199.480469 242.480469 199.957031 241.324219 C 200.4375 240.167969 200.945312 239.027344 201.480469 237.894531 C 202.015625 236.765625 202.578125 235.648438 203.164062 234.542969 C 203.753906 233.441406 204.371094 232.351562 205.015625 231.28125 C 205.660156 230.207031 206.328125 229.152344 207.023438 228.109375 C 207.71875 227.070312 208.4375 226.046875 209.183594 225.042969 C 209.925781 224.039062 210.695312 223.050781 211.492188 222.085938 C 212.285156 221.117188 213.101562 220.171875 213.941406 219.246094 C 214.78125 218.316406 215.644531 217.414062 216.527344 216.527344 C 217.414062 215.644531 218.316406 214.78125 219.246094 213.941406 C 220.171875 213.101562 221.117188 212.285156 222.085938 211.492188 C 223.050781 210.695312 224.039062 209.925781 225.042969 209.183594 C 226.046875 208.4375 227.070312 207.71875 228.109375 207.023438 C 229.152344 206.328125 230.207031 205.660156 231.28125 205.015625 C 232.351562 204.371094 233.441406 203.753906 234.542969 203.164062 C 235.648438 202.578125 236.765625 202.015625 237.894531 201.480469 C 239.027344 200.945312 240.167969 200.4375 241.324219 199.957031 C 242.480469 199.480469 243.648438 199.03125 244.824219 198.609375 C 246.003906 198.1875 247.191406 197.796875 248.386719 197.433594 C 249.585938 197.070312 250.789062 196.734375 252.003906 196.429688 C 253.214844 196.128906 254.4375 195.851562 255.664062 195.609375 C 256.890625 195.367188 258.121094 195.152344 259.359375 194.96875 C 260.597656 194.785156 261.839844 194.632812 263.082031 194.507812 C 264.328125 194.386719 265.574219 194.292969 266.824219 194.234375 C 268.074219 194.171875 269.324219 194.140625 270.574219 194.140625 C 271.828125 194.140625 273.078125 194.171875 274.324219 194.234375 C 275.574219 194.292969 276.824219 194.386719 278.066406 194.507812 C 279.3125 194.632812 280.554688 194.785156 281.789062 194.96875 C 283.027344 195.152344 284.261719 195.367188 285.488281 195.609375 C 286.714844 195.851562 287.933594 196.128906 289.148438 196.429688 C 290.359375 196.734375 291.566406 197.070312 292.761719 197.433594 C 293.960938 197.796875 295.148438 198.1875 296.324219 198.609375 C 297.503906 199.03125 298.671875 199.480469 299.824219 199.957031 C 300.980469 200.4375 302.125 200.945312 303.253906 201.480469 C 304.386719 202.015625 305.503906 202.578125 306.605469 203.164062 C 307.710938 203.753906 308.796875 204.371094 309.871094 205.015625 C 310.945312 205.660156 312 206.328125 313.039062 207.023438 C 314.082031 207.71875 315.101562 208.4375 316.109375 209.183594 C 317.113281 209.925781 318.097656 210.695312 319.066406 211.492188 C 320.03125 212.285156 320.980469 213.101562 321.90625 213.941406 C 322.832031 214.78125 323.738281 215.644531 324.621094 216.527344 C 325.507812 217.414062 326.371094 218.316406 327.210938 219.246094 C 328.050781 220.171875 328.867188 221.117188 329.660156 222.085938 C 330.453125 223.050781 331.222656 224.039062 331.96875 225.042969 C 332.714844 226.046875 333.433594 227.070312 334.128906 228.109375 C 334.824219 229.152344 335.492188 230.207031 336.136719 231.28125 C 336.777344 232.351562 337.394531 233.441406 337.984375 234.542969 C 338.574219 235.648438 339.136719 236.765625 339.671875 237.894531 C 340.207031 239.027344 340.714844 240.167969 341.191406 241.324219 C 341.671875 242.480469 342.121094 243.648438 342.542969 244.824219 C 342.964844 246.003906 343.355469 247.191406 343.71875 248.386719 C 344.082031 249.585938 344.414062 250.789062 344.71875 252.003906 C 345.023438 253.214844 345.296875 254.4375 345.542969 255.664062 C 345.785156 256.890625 346 258.121094 346.183594 259.359375 C 346.367188 260.597656 346.519531 261.839844 346.640625 263.082031 C 346.765625 264.328125 346.855469 265.574219 346.917969 266.824219 C 346.980469 268.074219 347.011719 269.324219 347.011719 270.574219 C 347.011719 271.828125 346.980469 273.078125 346.917969 274.324219 C 346.855469 275.574219 346.765625 276.824219 346.640625 278.066406 C 346.519531 279.3125 346.367188 280.554688 346.183594 281.789062 C 346 283.027344 345.785156 284.261719 345.542969 285.488281 C 345.296875 286.714844 345.023438 287.933594 344.71875 289.148438 C 344.414062 290.359375 344.082031 291.566406 343.71875 292.761719 C 343.355469 293.960938 342.964844 295.148438 342.542969 296.324219 C 342.121094 297.503906 341.671875 298.671875 341.191406 299.824219 C 340.714844 300.980469 340.207031 302.125 339.671875 303.253906 C 339.136719 304.386719 338.574219 305.503906 337.984375 306.605469 C 337.394531 307.710938 336.777344 308.796875 336.136719 309.871094 C 335.492188 310.945312 334.824219 312 334.128906 313.039062 C 333.433594 314.082031 332.714844 315.101562 331.96875 316.109375 C 331.222656 317.113281 330.453125 318.097656 329.660156 319.066406 C 328.867188 320.03125 328.050781 320.980469 327.210938 321.90625 C 326.371094 322.832031 325.507812 323.738281 324.621094 324.621094 C 323.738281 325.507812 322.832031 326.371094 321.90625 327.210938 C 320.980469 328.050781 320.03125 328.867188 319.066406 329.660156 C 318.097656 330.453125 317.113281 331.222656 316.109375 331.96875 C 315.101562 332.714844 314.082031 333.433594 313.039062 334.128906 C 312 334.824219 310.945312 335.492188 309.871094 336.136719 C 308.796875 336.777344 307.710938 337.394531 306.605469 337.984375 C 305.503906 338.574219 304.386719 339.136719 303.253906 339.671875 C 302.125 340.207031 300.980469 340.714844 299.824219 341.191406 C 298.671875 341.671875 297.503906 342.121094 296.324219 342.542969 C 295.148438 342.964844 293.960938 343.355469 292.761719 343.71875 C 291.566406 344.082031 290.359375 344.414062 289.148438 344.71875 C 287.933594 345.023438 286.714844 345.296875 285.488281 345.542969 C 284.261719 345.785156 283.027344 346 281.789062 346.183594 C 280.554688 346.367188 279.3125 346.519531 278.066406 346.640625 C 276.824219 346.765625 275.574219 346.855469 274.324219 346.917969 C 273.078125 346.980469 271.828125 347.011719 270.574219 347.011719 Z M 276.945312 264.207031 L 315.164062 264.207031 L 315.164062 276.945312 L 276.945312 276.945312 L 276.945312 315.164062 L 264.207031 315.164062 L 264.207031 276.945312 L 225.988281 276.945312 L 225.988281 264.207031 L 264.207031 264.207031 L 264.207031 225.988281 L 276.945312 225.988281 Z M 276.945312 264.207031 " fill-opacity="1" fill-rule="nonzero"/></g></svg>