<svg xmlns="http://www.w3.org/2000/svg" xmlns:xlink="http://www.w3.org/1999/xlink" width="500" zoomAndPan="magnify" viewBox="0 0 375 374.999991" height="500" preserveAspectRatio="xMidYMid meet" version="1.0"><defs><clipPath id="b1cc6fe1c8"><path d="M 15.246094 15.246094 L 359.496094 15.246094 L 359.496094 359.496094 L 15.246094 359.496094 Z M 15.246094 15.246094 " clip-rule="nonzero"/></clipPath></defs><g clip-path="url(#b1cc6fe1c8)"><path fill="#ffffff" d="M 309.296875 65.699219 C 276.761719 33.164062 233.507812 15.246094 187.496094 15.246094 C 141.488281 15.246094 98.230469 33.164062 65.699219 65.699219 C 33.164062 98.230469 15.246094 141.488281 15.246094 187.496094 C 15.246094 233.507812 33.164062 276.761719 65.699219 309.296875 C 98.230469 341.832031 141.488281 359.75 187.496094 359.75 C 233.507812 359.75 276.761719 341.832031 309.296875 309.296875 C 341.832031 276.761719 359.75 233.507812 359.75 187.496094 C 359.75 141.488281 341.832031 98.230469 309.296875 65.699219 Z M 73.511719 73.511719 C 103.960938 43.066406 144.441406 26.300781 187.496094 26.300781 C 230.554688 26.300781 271.035156 43.066406 301.480469 73.511719 C 331.925781 103.960938 348.695312 144.441406 348.695312 187.496094 C 348.695312 223.289062 337.097656 257.296875 315.695312 285.246094 C 298.667969 261.429688 271.472656 247.363281 241.9375 247.363281 L 133.058594 247.363281 C 103.523438 247.363281 76.328125 261.429688 59.296875 285.246094 C 37.898438 257.296875 26.300781 223.289062 26.300781 187.496094 C 26.300781 144.441406 43.066406 103.960938 73.511719 73.511719 Z M 187.496094 238.28125 C 231.753906 238.28125 267.757812 202.277344 267.757812 158.019531 C 267.757812 113.765625 231.753906 77.757812 187.496094 77.757812 C 143.242188 77.757812 107.234375 113.765625 107.234375 158.019531 C 107.234375 202.277344 143.242188 238.28125 187.496094 238.28125 Z M 187.496094 238.28125 " fill-opacity="1" fill-rule="nonzero"/></g></svg>